<svg width="1024" height="1024" viewBox="0 0 1024 1024" fill="none" xmlns="http://www.w3.org/2000/svg">
  <!-- Top cube -->
  <g transform="translate(512, 180)">
    <path d="M 0,-60 L 52,-30 L 52,30 L 0,60 L -52,30 L -52,-30 Z" stroke="#C2185B" stroke-width="12" fill="none" stroke-linejoin="round"/>
    <path d="M 0,-60 L 0,60" stroke="#C2185B" stroke-width="12"/>
    <path d="M 0,-60 L 52,-30" stroke="#C2185B" stroke-width="12"/>
  </g>
  
  <!-- Vertical line from top cube -->
  <line x1="512" y1="240" x2="512" y2="380" stroke="#2C2C2C" stroke-width="12"/>
  
  <!-- Horizontal line -->
  <line x1="220" y1="480" x2="804" y2="480" stroke="#2C2C2C" stroke-width="12"/>
  
  <!-- Vertical lines to bottom cubes -->
  <line x1="280" y1="480" x2="280" y2="580" stroke="#2C2C2C" stroke-width="12"/>
  <line x1="512" y1="480" x2="512" y2="580" stroke="#2C2C2C" stroke-width="12"/>
  <line x1="744" y1="480" x2="744" y2="580" stroke="#2C2C2C" stroke-width="12"/>
  
  <!-- Lock icon -->
  <g transform="translate(380, 440)">
    <rect x="-20" y="0" width="40" height="45" rx="5" fill="#D97706" stroke="#D97706" stroke-width="2"/>
    <path d="M -15,-15 L -15,-25 Q -15,-35 0,-35 Q 15,-35 15,-25 L 15,-15" stroke="#D97706" stroke-width="8" fill="none" stroke-linecap="round"/>
    <circle cx="0" cy="20" r="6" fill="#FFF"/>
  </g>
  
  <!-- Shield icon -->
  <g transform="translate(644, 445)">
    <path d="M 0,-25 L 18,-18 L 18,5 Q 18,20 0,30 Q -18,20 -18,5 L -18,-18 Z" fill="#7C3AED" stroke="#7C3AED" stroke-width="2"/>
  </g>
  
  <!-- Bottom left cube -->
  <g transform="translate(280, 700)">
    <path d="M 0,-60 L 52,-30 L 52,30 L 0,60 L -52,30 L -52,-30 Z" stroke="#C2185B" stroke-width="12" fill="none" stroke-linejoin="round"/>
    <path d="M 0,-60 L 0,60" stroke="#C2185B" stroke-width="12"/>
    <path d="M 0,-60 L 52,-30" stroke="#C2185B" stroke-width="12"/>
  </g>
  
  <!-- Bottom center cube -->
  <g transform="translate(512, 700)">
    <path d="M 0,-60 L 52,-30 L 52,30 L 0,60 L -52,30 L -52,-30 Z" stroke="#C2185B" stroke-width="12" fill="none" stroke-linejoin="round"/>
    <path d="M 0,-60 L 0,60" stroke="#C2185B" stroke-width="12"/>
    <path d="M 0,-60 L 52,-30" stroke="#C2185B" stroke-width="12"/>
  </g>
  
  <!-- Bottom right cube -->
  <g transform="translate(744, 700)">
    <path d="M 0,-60 L 52,-30 L 52,30 L 0,60 L -52,30 L -52,-30 Z" stroke="#C2185B" stroke-width="12" fill="none" stroke-linejoin="round"/>
    <path d="M 0,-60 L 0,60" stroke="#C2185B" stroke-width="12"/>
    <path d="M 0,-60 L 52,-30" stroke="#C2185B" stroke-width="12"/>
  </g>
</svg>
