<?xml version="1.0" encoding="utf-8"?>
<!-- Generator: Adobe Adobe Illustrator 29.2.0, SVG Export Plug-In . SVG Version: 6.00 Build 0)  -->
<svg version="1.1" id="Layer_1" xmlns="http://www.w3.org/2000/svg" xmlns:xlink="http://www.w3.org/1999/xlink" x="0px" y="0px" viewBox="0 0 1024 1024"
	 style="enable-background:new 0 0 1024 1024;" xml:space="preserve">
<style type="text/css">
	.st0{fill:#232F3E;}
	.st1{fill:#FFFFFF;}
	.st2{fill:none;stroke:#FFFFFF;stroke-width:14;stroke-linecap:round;stroke-miterlimit:10;}
	.st3{fill:#F92891;}
</style>
<circle class="st0" cx="512" cy="562" r="274.9"/>
<g>
	<path class="st1" d="M806.5,562c0,162.7-131.9,294.5-294.5,294.5S217.5,724.7,217.5,562S349.3,267.5,512,267.5
		S806.5,399.3,806.5,562L806.5,562z M649.2,540.2c0-9.8-7.9-17.7-17.7-17.7h-26v-46.9c0-51.8-42-93.8-93.8-93.8s-93.8,42-93.8,93.8
		v46.9h-26c-9.8,0-17.6,7.9-17.7,17.7v190c0,9.8,7.9,17.7,17.7,17.7h239.6c9.8,0,17.7-7.9,17.7-17.7V540.2L649.2,540.2z M576,475.6
		v46.9H447.3v-46.9c0.9-35.5,30.4-63.6,65.9-62.8C547.6,413.7,575.2,441.3,576,475.6L576,475.6z M523.4,638v48.7
		c0.4,6.5-4.6,12.1-11.1,12.4s-12.1-4.6-12.4-11.1c0-0.4,0-0.9,0-1.3V638c-14.9-6.5-21.7-23.8-15.1-38.7
		c6.5-14.9,23.8-21.7,38.7-15.2s21.7,23.8,15.2,38.7C535.6,629.6,530.2,635,523.4,638z"/>
</g>
<line class="st2" x1="123.1" y1="748.3" x2="260.5" y2="715.4"/>
<line class="st2" x1="763.5" y1="715.4" x2="900.9" y2="748.3"/>
<line class="st2" x1="123.1" y1="748.3" x2="123.1" y2="829.5"/>
<line class="st2" x1="512" y1="216.6" x2="512" y2="297.9"/>
<line class="st2" x1="900.9" y1="748.3" x2="900.9" y2="824.3"/>
<path class="st3" d="M42.3,953.3v-85.8c0-21,17-38,38-38H166c21,0,38,17,38,38v85.8c0,21-17,38-38,38H80.3
	C59.3,991.3,42.3,974.3,42.3,953.3z"/>
<path class="st3" d="M820,953.3v-85.8c0-21,17-38,38-38h85.8c21,0,38,17,38,38v85.8c0,21-17,38-38,38H858
	C837,991.3,820,974.3,820,953.3z"/>
<path class="st3" d="M404.8,177.9V64.2c0-27.8,22.5-50.4,50.4-50.4h113.7c27.8,0,50.4,22.5,50.4,50.4v113.7
	c0,27.8-22.5,50.4-50.4,50.4H455.2C427.2,228.3,404.8,205.7,404.8,177.9z"/>
</svg>
